<?xml version="1.0" encoding="UTF-8"?>
<svg xmlns="http://www.w3.org/2000/svg" id="Circles" viewBox="0 0 70 50"><defs><style>.cls-1{fill:#333;}.cls-2{fill:none;stroke:#333;stroke-miterlimit:10;stroke-width:1.2px;}</style></defs><g id="High_voltage"><path class="cls-1" d="m52.16,40.31H17.62c-1.03,0-1.95-.53-2.47-1.42-.52-.89-.52-1.96,0-2.85L32.42,6.12c.51-.89,1.44-1.42,2.47-1.42s1.95.53,2.47,1.42l17.27,29.91c.51.89.51,1.96,0,2.85-.51.89-1.44,1.43-2.47,1.43ZM34.89,6.5c-.18,0-.63.05-.91.52h0s-17.27,29.91-17.27,29.91c-.27.47-.09.89,0,1.05.09.16.36.52.91.52h34.54c.55,0,.82-.37.91-.52.09-.16.27-.58,0-1.05L35.8,7.02c-.27-.47-.73-.52-.91-.52Z"/><path class="cls-2" d="m38.53,23.69c.14,0,.22.16.14.28l-7.08,10.2c-.11.16-.37.04-.31-.15l2.17-7.31c.03-.11-.05-.23-.17-.23h-3.5c-.14,0-.22-.16-.14-.28l7.08-10.2c.11-.16.37-.04.31.15l-2.17,7.31c-.03.11.05.23.17.23h3.5Z"/></g></svg>
